<?xml version="1.0" standalone="no"?><!DOCTYPE svg PUBLIC "-//W3C//DTD SVG 1.1//EN" "http://www.w3.org/Graphics/SVG/1.1/DTD/svg11.dtd"><svg class="icon" width="200px" height="200.00px" viewBox="0 0 1024 1024" version="1.1" xmlns="http://www.w3.org/2000/svg"><path fill="#2c2c2c" d="M598.016 128l297.984 0 0 297.984-86.016 0 0-152.021333-418.005333 418.005333-59.989333-59.989333 418.005333-418.005333-152.021333 0 0-86.016zM809.984 809.984l0-297.984 86.016 0 0 297.984q0 34.005333-25.984 59.989333t-59.989333 25.984l-596.010667 0q-36.010667 0-61.013333-25.984t-25.002667-59.989333l0-596.010667q0-34.005333 25.002667-59.989333t61.013333-25.984l297.984 0 0 86.016-297.984 0 0 596.010667 596.010667 0z" /></svg>