<?xml version="1.0" standalone="no"?><!DOCTYPE svg PUBLIC "-//W3C//DTD SVG 1.1//EN" "http://www.w3.org/Graphics/SVG/1.1/DTD/svg11.dtd"><svg class="icon" width="200px" height="200.00px" viewBox="0 0 1024 1024" version="1.1" xmlns="http://www.w3.org/2000/svg"><path fill="#2c2c2c" d="M924 64H100c-19.9 0-36 16.1-36 36v824c0 19.9 16.1 36 36 36h824c19.9 0 36-16.1 36-36V100c0-19.9-16.1-36-36-36zM432 860H164V592c0-19.9 16.1-36 36-36s36 16.1 36 36v145.1L352.1 621c14.1-14.1 36.9-14.1 50.9 0 14.1 14.1 14.1 36.9 0 50.9L286.9 788H432c19.9 0 36 16.1 36 36s-16.1 36-36 36z m428-428c0 19.9-16.1 36-36 36s-36-16.1-36-36V286.9L671.9 403c-7 7-16.2 10.5-25.5 10.5-9.2 0-18.4-3.5-25.5-10.5-14.1-14.1-14.1-36.9 0-50.9L737.1 236H592c-19.9 0-36-16.1-36-36s16.1-36 36-36h268v268z"  /></svg>